<svg width="25" height="24" viewBox="0 0 25 24" fill="none" xmlns="http://www.w3.org/2000/svg">
<path d="M22.3218 11.607C22.1198 11.119 21.6868 11.002 21.3938 10.974V8C21.3938 6.897 20.4968 6 19.3938 6H13.3938V4.61C13.6988 4.336 13.8938 3.942 13.8938 3.5C13.8938 3.10218 13.7358 2.72064 13.4544 2.43934C13.1731 2.15804 12.7916 2 12.3938 2C11.996 2 11.6144 2.15804 11.3331 2.43934C11.0518 2.72064 10.8938 3.10218 10.8938 3.5C10.8938 3.942 11.0888 4.336 11.3938 4.61V6H5.39379C4.29079 6 3.39379 6.897 3.39379 8V10.997L3.31179 11.003C3.05976 11.0212 2.82397 11.1341 2.65181 11.3191C2.47965 11.504 2.38389 11.7473 2.38379 12V14C2.38379 14.2652 2.48915 14.5196 2.67668 14.7071C2.86422 14.8946 3.11857 15 3.38379 15H3.39379V20C3.39379 21.103 4.29079 22 5.39379 22H19.3938C20.4968 22 21.3938 21.103 21.3938 20V15C21.659 15 21.9134 14.8946 22.1009 14.7071C22.2884 14.5196 22.3938 14.2652 22.3938 14V12.062C22.4053 11.9068 22.3807 11.7511 22.3218 11.607ZM5.39379 20V8H19.3938L19.3948 11.996L19.3938 12V14L19.3948 14.005L19.3958 20H5.39379Z" fill="#2F4F4E"/>
<path d="M8.89355 14C9.72198 14 10.3936 13.1046 10.3936 12C10.3936 10.8954 9.72198 10 8.89355 10C8.06513 10 7.39355 10.8954 7.39355 12C7.39355 13.1046 8.06513 14 8.89355 14Z" fill="#2F4F4E"/>
<path d="M15.8936 14C16.722 14 17.3936 13.1046 17.3936 12C17.3936 10.8954 16.722 10 15.8936 10C15.0651 10 14.3936 10.8954 14.3936 12C14.3936 13.1046 15.0651 14 15.8936 14Z" fill="#2F4F4E"/>
<path d="M8.39355 16H16.3936V18H8.39355V16Z" fill="#2F4F4E"/>
</svg>
