<svg width="18" height="22" viewBox="0 0 18 22" fill="none" xmlns="http://www.w3.org/2000/svg">
<path fill-rule="evenodd" clip-rule="evenodd" d="M14.25 19.1481C14.25 19.7103 13.8908 20.1666 13.4464 20.1666C13.0021 20.1666 12.6429 19.7103 12.6429 19.1481C12.6429 16.34 10.8404 14.0555 8.625 14.0555C6.40955 14.0555 4.60714 16.34 4.60714 19.1481C4.60714 19.7103 4.24795 20.1666 3.80357 20.1666C3.3592 20.1666 3 19.7103 3 19.1481C3 15.2166 5.52402 12.0184 8.625 12.0184C11.726 12.0184 14.25 15.2166 14.25 19.1481M8.625 3.87029C9.51134 3.87029 10.2321 4.7839 10.2321 5.90733C10.2321 7.03075 9.51134 7.94436 8.625 7.94436C7.73866 7.94436 7.01786 7.03075 7.01786 5.90733C7.01786 4.7839 7.73866 3.87029 8.625 3.87029M8.625 9.9814C10.3977 9.9814 11.8393 8.15418 11.8393 5.90733C11.8393 3.66047 10.3977 1.83325 8.625 1.83325C6.85232 1.83325 5.41071 3.66047 5.41071 5.90733C5.41071 8.15418 6.85232 9.9814 8.625 9.9814" fill="#2F4F4E"/>
</svg>
