<svg width="391" height="45" viewBox="0 0 391 45" fill="none" xmlns="http://www.w3.org/2000/svg">
<path d="M45 22.5C45 34.9264 34.9264 45 22.5 45C10.0736 45 0 34.9264 0 22.5C0 10.0736 10.0736 0 22.5 0C34.9264 0 45 10.0736 45 22.5Z" fill="#1F7411"/>
<path fill-rule="evenodd" clip-rule="evenodd" d="M20.8634 28.0001C20.5874 28.0001 20.3234 27.8861 20.1344 27.6851L15.2714 22.5061C14.8924 22.1041 14.9134 21.4711 15.3154 21.0931C15.7184 20.7151 16.3514 20.7351 16.7284 21.1371L20.8534 25.5281L29.2614 16.3261C29.6354 15.9171 30.2674 15.8901 30.6754 16.2621C31.0824 16.6341 31.1104 17.2671 30.7384 17.6741L21.6014 27.6741C21.4144 27.8801 21.1484 27.9981 20.8704 28.0001H20.8634Z" fill="white"/>
<path fill-rule="evenodd" clip-rule="evenodd" d="M173 23H45V22H173V23Z" fill="#2F4F4E"/>
<path d="M218 22.5C218 34.9264 207.926 45 195.5 45C183.074 45 173 34.9264 173 22.5C173 10.0736 183.074 0 195.5 0C207.926 0 218 10.0736 218 22.5Z" fill="#1F7411"/>
<path fill-rule="evenodd" clip-rule="evenodd" d="M193.863 28.0001C193.587 28.0001 193.323 27.8861 193.134 27.6851L188.271 22.5061C187.892 22.1041 187.913 21.4711 188.315 21.0931C188.718 20.7151 189.351 20.7351 189.728 21.1371L193.853 25.5281L202.261 16.3261C202.635 15.9171 203.267 15.8901 203.675 16.2621C204.082 16.6341 204.11 17.2671 203.738 17.6741L194.601 27.6741C194.414 27.8801 194.148 27.9981 193.87 28.0001H193.863Z" fill="white"/>
<path fill-rule="evenodd" clip-rule="evenodd" d="M346 23H218V22H346V23Z" fill="#2F4F4E"/>
<path d="M391 22.5C391 34.9264 380.926 45 368.5 45C356.074 45 346 34.9264 346 22.5C346 10.0736 356.074 0 368.5 0C380.926 0 391 10.0736 391 22.5Z" fill="#2F4F4E"/>
<path d="M368.136 28.1591C367.386 28.1591 366.718 28.0303 366.131 27.7728C365.547 27.5152 365.083 27.1572 364.739 26.6989C364.398 26.2368 364.212 25.7008 364.182 25.091H365.614C365.644 25.466 365.773 25.7898 366 26.0625C366.227 26.3315 366.525 26.5398 366.892 26.6875C367.26 26.8353 367.667 26.9091 368.114 26.9091C368.614 26.9091 369.057 26.822 369.443 26.6478C369.83 26.4735 370.133 26.2311 370.352 25.9205C370.572 25.6099 370.682 25.25 370.682 24.841C370.682 24.4129 370.576 24.036 370.364 23.7103C370.152 23.3807 369.841 23.1232 369.432 22.9375C369.023 22.7519 368.523 22.6591 367.932 22.6591H367V21.4091H367.932C368.394 21.4091 368.799 21.3258 369.148 21.1591C369.5 20.9925 369.775 20.7576 369.972 20.4546C370.172 20.1516 370.273 19.7955 370.273 19.3864C370.273 18.9925 370.186 18.6497 370.011 18.358C369.837 18.0663 369.591 17.8391 369.273 17.6762C368.958 17.5133 368.587 17.4319 368.159 17.4319C367.758 17.4319 367.379 17.5057 367.023 17.6535C366.671 17.7974 366.383 18.0076 366.159 18.2841C365.936 18.5569 365.814 18.8864 365.796 19.2728H364.432C364.455 18.6629 364.638 18.1288 364.983 17.6705C365.328 17.2084 365.778 16.8485 366.335 16.591C366.896 16.3334 367.511 16.2046 368.182 16.2046C368.902 16.2046 369.519 16.3504 370.034 16.6421C370.549 16.93 370.945 17.3107 371.222 17.7841C371.498 18.2576 371.636 18.769 371.636 19.3182C371.636 19.9735 371.464 20.5322 371.119 20.9944C370.778 21.4565 370.314 21.7766 369.727 21.9546V22.0455C370.462 22.1667 371.036 22.4792 371.449 22.983C371.862 23.483 372.068 24.1023 372.068 24.841C372.068 25.4735 371.896 26.0417 371.551 26.5455C371.21 27.0455 370.744 27.4394 370.153 27.7273C369.563 28.0152 368.89 28.1591 368.136 28.1591Z" fill="white"/>
</svg>
