<svg width="29" height="28" viewBox="0 0 29 28" fill="none" xmlns="http://www.w3.org/2000/svg">
<path d="M14.7284 0C6.86636 0 0.485596 6.272 0.485596 14C0.485596 21.728 6.86636 28 14.7284 28C22.5904 28 28.9711 21.728 28.9711 14C28.9711 6.272 22.5904 0 14.7284 0ZM14.7284 4.2C17.0927 4.2 19.0012 6.076 19.0012 8.4C19.0012 10.724 17.0927 12.6 14.7284 12.6C12.3641 12.6 10.4555 10.724 10.4555 8.4C10.4555 6.076 12.3641 4.2 14.7284 4.2ZM14.7284 24.08C11.1677 24.08 8.02002 22.288 6.18271 19.572C6.22543 16.786 11.8798 15.26 14.7284 15.26C17.5627 15.26 23.2313 16.786 23.274 19.572C21.4367 22.288 18.2891 24.08 14.7284 24.08Z" fill="#35A29F" fill-opacity="0.6"/>
</svg>
